<svg xmlns="http://www.w3.org/2000/svg" width="24" height="24" viewBox="0 0 24 24"><title>ico_discount</title><g id="ico_discount"><path d="M21.53,10.86,20,9.33V6.16A1.66,1.66,0,0,0,18.34,4.5H15.17l-2-2a1.61,1.61,0,0,0-2.28,0l-2,2H5.66A1.66,1.66,0,0,0,4,6.16V9.33L2.47,10.86a1.61,1.61,0,0,0,0,2.28L4,14.67v3.17A1.66,1.66,0,0,0,5.66,19.5H8.83l2,2a1.61,1.61,0,0,0,2.28,0l2-2h3.17A1.66,1.66,0,0,0,20,17.84V14.67l1.53-1.53A1.61,1.61,0,0,0,21.53,10.86ZM7,9.5A1.45,1.45,0,0,1,8.4,8a1.5,1.5,0,0,1,0,3A1.45,1.45,0,0,1,7,9.5ZM9.94,16H8.06l6-8h1.88Zm5.66,0A1.5,1.5,0,1,1,17,14.5,1.45,1.45,0,0,1,15.6,16Z"/></g></svg>