<svg xmlns="http://www.w3.org/2000/svg" width="24" height="24" viewBox="0 0 24 24"><title>ico_transaction</title><g id="ico_transaction"><path d="M18.5,4h-.43l-.41.61-.7,1A3,3,0,0,1,14.46,7H9.54A3,3,0,0,1,7,5.66l-.7-1L5.93,4H5.5A1.5,1.5,0,0,0,4,5.5v15A1.5,1.5,0,0,0,5.5,22h13A1.5,1.5,0,0,0,20,20.5V5.5A1.5,1.5,0,0,0,18.5,4ZM12,19H8a1,1,0,0,1,0-2h4a1,1,0,0,1,0,2Zm4-4H8a1,1,0,0,1,0-2h8a1,1,0,0,1,0,2ZM8.33,4,8,3.5l.7-1A1,1,0,0,1,9.54,2h4.92a1,1,0,0,1,.84.45l.7,1-.33.5h0l-.37.55a1,1,0,0,1-.84.45H9.54a1,1,0,0,1-.84-.45L8.33,4Z"/></g></svg>