<svg xmlns="http://www.w3.org/2000/svg" width="24" height="24" viewBox="0 0 24 24"><title>ico_verified</title><g id="ico_verified"><path d="M21.53,10.86,20,9.33V6.16A1.66,1.66,0,0,0,18.34,4.5H15.17l-2-2a1.61,1.61,0,0,0-2.28,0l-2,2H5.66A1.66,1.66,0,0,0,4,6.16V9.33L2.47,10.86a1.61,1.61,0,0,0,0,2.28L4,14.67v3.17A1.66,1.66,0,0,0,5.66,19.5H8.83l2,2a1.61,1.61,0,0,0,2.28,0l2-2h3.17A1.66,1.66,0,0,0,20,17.84V14.67l1.53-1.53A1.61,1.61,0,0,0,21.53,10.86Zm-10.3,4.91a.58.58,0,0,1-.94,0L7,12.14l.83-1L10.75,13l5.42-4.76.83,1Z"/></g></svg>