<svg xmlns="http://www.w3.org/2000/svg" width="24" height="24" viewBox="0 0 24 24"><title>ico_printer</title><g id="ico_printer"><path d="M20.5,8H3.5A1.5,1.5,0,0,0,2,9.5v7A1.5,1.5,0,0,0,3.5,18h.11l-.34,1a1.53,1.53,0,0,0,.21,1.36A1.49,1.49,0,0,0,4.69,21H19.31a1.49,1.49,0,0,0,1.21-.62A1.51,1.51,0,0,0,20.73,19l-.34-1h.11A1.5,1.5,0,0,0,22,16.5v-7A1.5,1.5,0,0,0,20.5,8ZM18,10h1a1,1,0,0,1,0,2H18a1,1,0,0,1,0-2Zm.61,9H5.39l.33-1,1-3H17.28l1,3ZM19,6H5V4.5A1.5,1.5,0,0,1,6.5,3h11A1.5,1.5,0,0,1,19,4.5Z"/></g></svg>