<svg xmlns="http://www.w3.org/2000/svg" width="24" height="24" viewBox="0 0 24 24"><title>ico_push</title><g id="ico_push"><path d="M11,14.24v5a1.5,1.5,0,0,1-1.5,1.5h-5A1.5,1.5,0,0,1,3,19.24v-5a1.5,1.5,0,0,1,1.5-1.5H6v-5H4a.5.5,0,0,1-.39-.81l3-3.82a.49.49,0,0,1,.78,0l3,3.82a.5.5,0,0,1-.39.81H8v5H9.5A1.5,1.5,0,0,1,11,14.24ZM21,4.41v5a1.5,1.5,0,0,1-1.5,1.5h-5A1.5,1.5,0,0,1,13,9.41v-5a1.5,1.5,0,0,1,1.5-1.5h5A1.5,1.5,0,0,1,21,4.41Zm-2,.5H15v4h4Zm2,9.5v5a1.5,1.5,0,0,1-1.5,1.5h-5a1.5,1.5,0,0,1-1.5-1.5v-5a1.5,1.5,0,0,1,1.5-1.5h5A1.5,1.5,0,0,1,21,14.41Zm-2,.5H15v4h4Z"/></g></svg>