<svg xmlns="http://www.w3.org/2000/svg" width="20" height="20" viewBox="0 0 20 20"><title>ico_category_minor</title><g id="ico_category_minor"><path d="M3.5,6h-1A.5.5,0,0,1,2,5.5v-1A.5.5,0,0,1,2.5,4h1a.5.5,0,0,1,.5.5v1A.5.5,0,0,1,3.5,6ZM18,5.5v-1a.5.5,0,0,0-.5-.5H6.5a.5.5,0,0,0-.5.5v1a.5.5,0,0,0,.5.5h11A.5.5,0,0,0,18,5.5Zm-14,5v-1A.5.5,0,0,0,3.5,9h-1a.5.5,0,0,0-.5.5v1a.5.5,0,0,0,.5.5h1A.5.5,0,0,0,4,10.5Zm14,0v-1a.5.5,0,0,0-.5-.5H6.5a.5.5,0,0,0-.5.5v1a.5.5,0,0,0,.5.5h11A.5.5,0,0,0,18,10.5Zm-14,5v-1a.5.5,0,0,0-.5-.5h-1a.5.5,0,0,0-.5.5v1a.5.5,0,0,0,.5.5h1A.5.5,0,0,0,4,15.5Zm14,0v-1a.5.5,0,0,0-.5-.5H6.5a.5.5,0,0,0-.5.5v1a.5.5,0,0,0,.5.5h11A.5.5,0,0,0,18,15.5Z"/></g></svg>