<svg xmlns="http://www.w3.org/2000/svg" width="24" height="24" viewBox="0 0 24 24"><title>ico_scan_barcode</title><g id="ico_scan_barcode"><path d="M7,6H17a1,1,0,0,1,1,1v3H6V7A1,1,0,0,1,7,6ZM6,20H4V18a1,1,0,0,0-2,0v3a1,1,0,0,0,1,1H6a1,1,0,0,0,0-2ZM3,7A1,1,0,0,0,4,6V4H6A1,1,0,0,0,6,2H3A1,1,0,0,0,2,3V6A1,1,0,0,0,3,7ZM21,2H18a1,1,0,0,0,0,2h2V6a1,1,0,0,0,2,0V3A1,1,0,0,0,21,2ZM18,17V14h1.5a.5.5,0,0,0,.5-.5v-1a.5.5,0,0,0-.5-.5H4.5a.5.5,0,0,0-.5.5v1a.5.5,0,0,0,.5.5H6v3a1,1,0,0,0,1,1H17A1,1,0,0,0,18,17Zm3,0a1,1,0,0,0-1,1v2H18a1,1,0,0,0,0,2h3a1,1,0,0,0,1-1V18A1,1,0,0,0,21,17Z"/></g></svg>