<svg xmlns="http://www.w3.org/2000/svg" width="20" height="20" viewBox="0 0 20 20"><title>ico_guarantee_minor</title><g id="ico_guarantee_minor"><path d="M10,2A23.76,23.76,0,0,1,3,4.5C3,14,6,16,10,18c4-2,7-4,7-13.5A23.76,23.76,0,0,1,10,2Zm1.15,2.78.11,0c.35.15.7.3,1.07.44l.1,0c.37.14.75.27,1.15.4l.45.13c.3.09.6.18.93.26-.29,6.11-2.36,8.21-5,9.66-2.6-1.45-4.67-3.55-5-9.66.33-.08.63-.17.93-.26l.45-.13c.35-.11.69-.23,1-.35l.23-.08,1-.43.14,0L10,4.24ZM10,5.9a24.77,24.77,0,0,0,3.38,1.3C13,11.1,11.71,12.82,10,14,8.29,12.82,7,11.1,6.62,7.2A24.77,24.77,0,0,0,10,5.9Z"/><path d="M10,2A23.76,23.76,0,0,1,3,4.5C3,14,6,16,10,18c4-2,7-4,7-13.5A23.76,23.76,0,0,1,10,2Zm5,4.08c-.29,6.11-2.36,8.21-5,9.66-2.6-1.45-4.67-3.55-5-9.66a24.8,24.8,0,0,0,5-1.84A24.1,24.1,0,0,0,15,6.08ZM10,5.9a24.77,24.77,0,0,0,3.38,1.3C13,11.1,11.71,12.82,10,14,8.29,12.82,7,11.1,6.62,7.2A24.77,24.77,0,0,0,10,5.9Z"/></g></svg>