<svg xmlns="http://www.w3.org/2000/svg" width="24" height="24" viewBox="0 0 24 24"><title>ico_blog</title><g id="ico_blog"><path d="M21.5,3H7.5a.5.5,0,0,0-.5.5V9H3.5A1.5,1.5,0,0,0,2,10.5v7A3.5,3.5,0,0,0,5.5,21h14A2.5,2.5,0,0,0,22,18.5V3.5A.5.5,0,0,0,21.5,3ZM7,17.5a1.5,1.5,0,0,1-3,0V11H7Zm12,0a.5.5,0,0,1-.5.5h-8a.5.5,0,0,1-.5-.5v-1a.5.5,0,0,1,.5-.5h8a.5.5,0,0,1,.5.5Zm0-4a.5.5,0,0,1-.5.5h-8a.5.5,0,0,1-.5-.5v-1a.5.5,0,0,1,.5-.5h8a.5.5,0,0,1,.5.5Zm0-5a.5.5,0,0,1-.5.5h-3a.5.5,0,0,1-.5-.5v-2a.5.5,0,0,1,.5-.5h3a.5.5,0,0,1,.5.5Z"/></g></svg>