<svg xmlns="http://www.w3.org/2000/svg" width="24" height="24" viewBox="0 0 24 24"><title>ico_voucher</title><g id="ico_voucher"><path d="M21.5,10.12a.5.5,0,0,0,.5-.5v-4a1.5,1.5,0,0,0-1.5-1.5H3.5A1.5,1.5,0,0,0,2,5.62v4a.5.5,0,0,0,.5.5A1.5,1.5,0,0,1,4,11.62v1a1.5,1.5,0,0,1-1.5,1.5.5.5,0,0,0-.5.5v4a1.5,1.5,0,0,0,1.5,1.5h17a1.5,1.5,0,0,0,1.5-1.5v-4a.5.5,0,0,0-.5-.5,1.5,1.5,0,0,1-1.5-1.5v-1A1.5,1.5,0,0,1,21.5,10.12ZM7,9.62a1.45,1.45,0,0,1,1.4-1.5,1.5,1.5,0,0,1,0,3A1.46,1.46,0,0,1,7,9.62Zm1.06,6.5,6-8h1.88l-6,8Zm7.54,0a1.5,1.5,0,1,1,1.4-1.5A1.46,1.46,0,0,1,15.6,16.12Z"/></g></svg>