<svg xmlns="http://www.w3.org/2000/svg" width="20" height="20" viewBox="0 0 20 20"><title>ico_verified_minor</title><g id="ico_verified_minor"><path d="M17.57,8.94,16,7.37V5.5A1.5,1.5,0,0,0,14.5,4H12.63L11.06,2.43a1.49,1.49,0,0,0-2.12,0L7.37,4H5.5A1.5,1.5,0,0,0,4,5.5V7.37L2.43,8.94a1.49,1.49,0,0,0,0,2.12L4,12.63V14.5A1.5,1.5,0,0,0,5.5,16H7.37l1.57,1.57a1.49,1.49,0,0,0,2.12,0L12.63,16H14.5A1.5,1.5,0,0,0,16,14.5V12.63l1.57-1.57A1.49,1.49,0,0,0,17.57,8.94Zm-3.86-.23-4,4a1,1,0,0,1-1.42,0l-2-2A1,1,0,0,1,7.71,9.29L9,10.59l3.29-3.3a1,1,0,1,1,1.42,1.42Z"/></g></svg>