<svg xmlns="http://www.w3.org/2000/svg" width="24" height="24" viewBox="0 0 24 24"><title>ico_heart_outline</title><g id="ico_heart_outline"><path d="M20.4,4.63a5.42,5.42,0,0,0-7.75,0,5.35,5.35,0,0,0-.65.79,5.35,5.35,0,0,0-.65-.79,5.42,5.42,0,0,0-7.75,0,5.63,5.63,0,0,0,0,7.86L12,21l8.4-8.51A5.63,5.63,0,0,0,20.4,4.63Zm-1.56,6.59L12,18.15,5.16,11.22A3.8,3.8,0,0,1,5,6,3.4,3.4,0,0,1,7.48,5a4.87,4.87,0,0,1,4.1,2.68.49.49,0,0,0,.84,0A4.87,4.87,0,0,1,16.52,5,3.4,3.4,0,0,1,19,6,3.8,3.8,0,0,1,18.84,11.22Z"/></g></svg>