<svg xmlns="http://www.w3.org/2000/svg" width="24" height="24" viewBox="0 0 24 24"><title>ico_contact_book</title><g id="ico_contact_book"><path d="M22,4.5V7a1,1,0,0,1-1,1H19V4h2.5A.5.5,0,0,1,22,4.5ZM21.5,10H19v4h2a1,1,0,0,0,1-1V10.5A.5.5,0,0,0,21.5,10Zm0,6H19v4h2a1,1,0,0,0,1-1V16.5A.5.5,0,0,0,21.5,16Zm-4-12.5v16A1.5,1.5,0,0,1,16,21H3.5A1.5,1.5,0,0,1,2,19.5V3.5A1.5,1.5,0,0,1,3.5,2H16A1.5,1.5,0,0,1,17.5,3.5ZM7,9.5A2.5,2.5,0,1,0,9.5,7,2.5,2.5,0,0,0,7,9.5ZM15,18h0a5.28,5.28,0,0,0-5.12-4H9.12A5.28,5.28,0,0,0,4,18H15Z"/></g></svg>