<svg xmlns="http://www.w3.org/2000/svg" width="24" height="24" viewBox="0 0 24 24"><title>ico_setting</title><g id="ico_setting"><path d="M20.36,13.45a7.58,7.58,0,0,0,0-2.9L21.86,9a.5.5,0,0,0,.07-.59L20.31,5.59a.5.5,0,0,0-.55-.23l-2.11.53a7.71,7.71,0,0,0-2.44-1.41L14.6,2.36A.5.5,0,0,0,14.12,2H10.88a.5.5,0,0,0-.48.36L9.79,4.48A7.71,7.71,0,0,0,7.35,5.89L5.24,5.36a.5.5,0,0,0-.55.23L3.07,8.41A.5.5,0,0,0,3.14,9l1.5,1.55a7.58,7.58,0,0,0,0,2.9L3.14,15a.5.5,0,0,0-.07.59l1.62,2.82a.5.5,0,0,0,.55.23l2.11-.53a7.71,7.71,0,0,0,2.44,1.41l.61,2.12a.5.5,0,0,0,.48.36h3.24a.5.5,0,0,0,.48-.36l.61-2.12a7.71,7.71,0,0,0,2.44-1.41l2.11.53a.5.5,0,0,0,.55-.23l1.62-2.82a.5.5,0,0,0-.07-.59ZM12.5,16a4,4,0,1,1,4-4A4,4,0,0,1,12.5,16Z"/></g></svg>